<svg class="theme-icon" width="20" height="20" viewBox="0 0 20 20" fill="none" xmlns="http://www.w3.org/2000/svg">
<path d="M15 6V4H13V6H15Z" fill="#142C73"></path>
<path fill-rule="evenodd" clip-rule="evenodd" d="M0 16H8.04686L9.79686 18H8V20H15V18H12.4544L10.7044 16H11C11.9193 16 12.8295 15.8189 13.6788 15.4672C14.5281 15.1154 15.2997 14.5998 15.9497 13.9497C16.5998 13.2997 17.1154 12.5281 17.4672 11.6788C17.8189 10.8295 18 9.91925 18 9V6H20V4H18V3.5C18 1.567 16.433 0 14.5 0C14.3302 0 14.1633 0.012086 14 0.0354444C13.2459 0.143305 12.5694 0.491523 12.0505 1L12.0279 1.02234L12 1.05051V1L0 16ZM13.2788 2.60303L4.16125 14H11C11.6566 14 12.3068 13.8707 12.9134 13.6194C13.52 13.3681 14.0712 12.9998 14.5355 12.5355C14.9998 12.0712 15.3681 11.52 15.6194 10.9134C15.8707 10.3068 16 9.65661 16 9V3.5C16 2.67157 15.3284 2 14.5 2C14.0799 2 13.7031 2.1701 13.4285 2.45031L13.2788 2.60303Z" fill="#142C73"></path>
</svg>