<svg class="theme-icon" width="20" height="20" viewBox="0 0 20 20" fill="none" xmlns="http://www.w3.org/2000/svg">
<path d="M7 9H9V11H7V9Z" fill="#142C73"></path>
<path d="M11 9H13V11H11V9Z" fill="#142C73"></path>
<path d="M9 13H11V15H9V13Z" fill="#142C73"></path>
<path fill-rule="evenodd" clip-rule="evenodd" d="M0 0L6.09091 4H13.9091L20 0V11C20 13.3869 18.9464 15.6761 17.0711 17.364C15.1957 19.0518 12.6522 20 10 20C7.34784 20 4.8043 19.0518 2.92893 17.364C1.05357 15.6761 0 13.3869 0 11V0ZM14.5071 6L18 3.70615V11C18 12.7844 17.2142 14.5444 15.7331 15.8774C14.2451 17.2166 12.1858 18 10 18C7.81423 18 5.7549 17.2166 4.26686 15.8774C2.78577 14.5444 2 12.7844 2 11V3.70615L5.4929 6H14.5071Z" fill="#142C73"></path>
</svg>