<svg class="theme-icon" width="20" height="20" viewBox="0 0 20 20" fill="none" xmlns="http://www.w3.org/2000/svg">
<path d="M6 9H4V11H6V9Z" fill="#142C73"></path>
<path fill-rule="evenodd" clip-rule="evenodd" d="M8.5 3C11.7007 3 14.5031 4.84639 16.0479 7.609C16.9907 6.14058 18.3747 5.01132 20 4.43164V6.60876C18.681 7.28634 17.6226 8.48781 17.0901 10C17.6226 11.5123 18.681 12.7137 20 13.3913V15.5684C18.3747 14.9887 16.9907 13.8595 16.0479 12.391C14.503 15.1536 11.7007 17 8.5 17C4.44475 17 1.02893 14.0361 0 10C1.02893 5.96394 4.44475 3 8.5 3ZM2.08063 10C3.04965 12.998 5.63205 15 8.5 15C11.3679 15 13.9504 12.998 14.9194 10C13.9503 7.00202 11.3679 5 8.5 5C5.63205 5 3.04965 7.00202 2.08063 10Z" fill="#142C73"></path>
</svg>