<svg class="theme-icon" width="20" height="20" viewBox="0 0 20 20" fill="none" xmlns="http://www.w3.org/2000/svg">
<path d="M20 1.00043V20.0004H18V11.0004H14V9.00043H18V7.00043H14V5.00043H18V3.00043H14V1.00043H20Z" fill="#142C73"></path>
<path fill-rule="evenodd" clip-rule="evenodd" d="M6.39043 9.99684L5.06546 13.3692C4.59441 13.1332 4.06271 13.0004 3.5 13.0004C1.567 13.0004 0 14.5674 0 16.5004C0 18.4334 1.567 20.0004 3.5 20.0004C5.433 20.0004 7 18.4334 7 16.5004C7 15.9235 6.86039 15.3791 6.61312 14.8993L7.46484 12.7315L8.31657 14.8993C8.06929 15.3791 7.92969 15.9235 7.92969 16.5004C7.92969 18.4334 9.49669 20.0004 11.4297 20.0004C13.3627 20.0004 14.9297 18.4334 14.9297 16.5004C14.9297 14.5674 13.3627 13.0004 11.4297 13.0004C10.867 13.0004 10.3353 13.1332 9.86423 13.3692L8.53926 9.99684L11.9302 1.36613L10.0687 0.634766L7.46484 7.26223L4.86095 0.634766L2.99947 1.36613L6.39043 9.99684ZM3.5 18.0004C2.67157 18.0004 2 17.3289 2 16.5004C2 15.672 2.67157 15.0004 3.5 15.0004C4.32843 15.0004 5 15.672 5 16.5004C5 17.3289 4.32843 18.0004 3.5 18.0004ZM11.4297 18.0004C12.2581 18.0004 12.9297 17.3289 12.9297 16.5004C12.9297 15.672 12.2581 15.0004 11.4297 15.0004C10.6013 15.0004 9.92969 15.672 9.92969 16.5004C9.92969 17.3289 10.6013 18.0004 11.4297 18.0004Z" fill="#142C73"></path>
</svg>