<svg class="theme-icon" width="20" height="20" viewBox="0 0 20 20" fill="none" xmlns="http://www.w3.org/2000/svg">
<path fill-rule="evenodd" clip-rule="evenodd" d="M17.3552 1.49309C19.3148 3.48387 19.3148 6.71156 17.3552 8.70234L17.2876 8.77108C18.9216 9.86501 20 11.7459 20 13.8827C20 17.2612 17.3042 20 13.9788 20C11.8756 20 10.0242 18.9044 8.94746 17.2443L8.56565 17.6322C6.60614 19.623 3.42914 19.623 1.46963 17.6322C-0.489878 15.6414 -0.489877 12.4137 1.46963 10.423L10.2592 1.49309C12.2187 -0.497695 15.3957 -0.497695 17.3552 1.49309ZM15.936 7.26049L15.2948 7.91202C14.8712 7.81609 14.4308 7.76549 13.9788 7.76549C12.6782 7.76549 11.4738 8.18449 10.4894 8.89687L8.14977 6.51991L11.6784 2.93494C12.8541 1.74047 14.7603 1.74047 15.936 2.93494C17.1117 4.1294 17.1117 6.06602 15.936 7.26049ZM6.73057 7.96176L9.07038 10.3389C8.36973 11.3388 7.95766 12.5619 7.95766 13.8827C7.95766 14.342 8.00747 14.7894 8.10189 15.2197L7.14644 16.1904C5.97074 17.3848 4.06454 17.3848 2.88883 16.1904C1.71313 14.9959 1.71313 13.0593 2.88884 11.8648L6.73057 7.96176ZM14.9824 17.8324C16.7137 17.3797 17.9929 15.783 17.9929 13.8827C17.9929 11.9825 16.7137 10.3858 14.9824 9.93305V17.8324ZM12.9753 17.8324V9.93305C11.244 10.3858 9.96472 11.9825 9.96472 13.8827C9.96472 15.783 11.244 17.3797 12.9753 17.8324Z" fill="#142C73"></path>
</svg>