<svg class="theme-icon" width="20" height="20" viewBox="0 0 20 20" fill="none" xmlns="http://www.w3.org/2000/svg">
<path fill-rule="evenodd" clip-rule="evenodd" d="M10.9002 5.43916C10.8258 5.54695 10.7341 5.63936 10.6292 5.71029C10.6844 5.85177 10.7685 5.9791 10.8745 6.08524C11.076 6.28716 11.3565 6.41238 11.6667 6.41238H12.2222C12.3655 6.41238 12.5063 6.42307 12.6437 6.44368C13.9778 6.64378 15 7.77895 15 9.14936C15 10.661 13.7563 11.8864 12.2222 11.8864H7.77778C7.16413 11.8864 6.66667 12.3765 6.66667 12.9812L6.66667 15.1707L5 16.2655V12.9812C5 11.4696 6.24365 10.2442 7.77778 10.2442H12.2222C12.8359 10.2442 13.3333 9.754 13.3333 9.14936C13.3333 8.54473 12.8359 8.05457 12.2222 8.05457H11.6667C10.4965 8.05457 9.49525 7.34158 9.0861 6.33243C9.01422 6.15513 8.96061 5.96869 8.92757 5.77536C8.59113 5.6109 8.3587 5.23902 8.33528 4.8194C8.32828 4.69393 8.33997 4.56419 8.37315 4.43444L8.78146 2.83787C9.05585 1.76497 10.3886 1.76497 10.663 2.83787L11.0713 4.43444C11.1652 4.80159 11.087 5.16874 10.9002 5.43916ZM7.17433 6.94569C6.4424 6.14894 6.16485 4.98895 6.4375 3.92285L6.84581 2.32627C7.20536 0.920394 8.38288 0 9.72222 0C11.0616 1.21188e-07 12.2391 0.920394 12.5986 2.32627L13.0069 3.92284C13.0524 4.10067 13.0827 4.28038 13.0982 4.46008C15.2802 4.86721 17 6.76669 17 9.14936C17 11.8433 14.8015 13.9195 12.2222 13.9195H8.66667L8.66667 16.2777L3 20V12.9812C3 10.2872 5.19846 8.21097 7.77778 8.21097H7.86676C7.57662 7.8319 7.34144 7.4066 7.17433 6.94569Z" fill="#142C73"></path>
</svg>