<svg class="theme-icon" width="20" height="20" viewBox="0 0 20 20" fill="none" xmlns="http://www.w3.org/2000/svg">
<g clip-path="url(#clip0_1892_5477)">
<path d="M13.8 6.6L7.8 14.6L6.2 13.4L12.2 5.4L13.8 6.6Z" fill="#142C73"></path>
<path d="M8 6H6V8H8V6Z" fill="#142C73"></path>
<path d="M12 12H14V14H12V12Z" fill="#142C73"></path>
<path fill-rule="evenodd" clip-rule="evenodd" d="M0 10C0 15.5228 4.47715 20 10 20C15.5228 20 20 15.5228 20 10C20 4.47715 15.5228 0 10 0C4.47715 0 0 4.47715 0 10ZM2 10C2 14.4183 5.58172 18 10 18C14.4183 18 18 14.4183 18 10C18 5.58172 14.4183 2 10 2C5.58172 2 2 5.58172 2 10Z" fill="#142C73"></path>
</g>
<defs>
<clipPath id="clip0_1892_5477">
<rect width="20" height="20" fill="white"></rect>
</clipPath>
</defs>
</svg>