<svg class="theme-icon" width="20" height="20" viewBox="0 0 20 20" fill="none" xmlns="http://www.w3.org/2000/svg">
<path d="M9 11V9H7V11H9Z" fill="#142C73"></path>
<path d="M13 9H11V11H13V9Z" fill="#142C73"></path>
<path d="M11 15V13H9V15H11Z" fill="#142C73"></path>
<path fill-rule="evenodd" clip-rule="evenodd" d="M10.0111 4.11112C10.8102 2.26286 12.6817 1 14.8 1C17.6184 1 20 3.23559 20 6.11111C20 7.97785 18.9949 9.57604 17.5191 10.4669C17.5724 10.8225 17.6 11.1861 17.6 11.5556C17.6 15.7197 14.1439 19 10 19C5.85612 19 2.4 15.7197 2.4 11.5556C2.4 11.1861 2.42762 10.8225 2.48095 10.4669C1.0051 9.57604 0 7.97785 0 6.11111C0 3.23559 2.3816 1 5.2 1C7.31828 1 9.18982 2.26286 9.98892 4.11112L10 4.11111L10.0111 4.11112ZM11.602 6C11.6232 5.41265 11.8119 4.86672 12.123 4.40595C12.6948 3.55916 13.6802 3 14.8 3C16.5673 3 18 4.39289 18 6.11111C18 7.04382 17.5778 7.88067 16.9091 8.45089C16.4061 8.87983 15.7636 9.1579 15.0563 9.21239C15.3501 9.81067 15.5349 10.4693 15.5857 11.1639C15.5952 11.2933 15.6 11.4239 15.6 11.5556C15.6 14.5624 13.0928 17 10 17C6.90721 17 4.4 14.5624 4.4 11.5556C4.4 11.4239 4.40481 11.2933 4.41427 11.1639C4.46506 10.4693 4.64987 9.81067 4.94372 9.21239C4.23645 9.1579 3.59391 8.87984 3.09087 8.45089C2.42217 7.88067 2 7.04382 2 6.11111C2 4.39289 3.43269 3 5.2 3C6.31975 3 7.30518 3.55916 7.87698 4.40595C8.18812 4.86672 8.37679 5.41265 8.398 6H11.602Z" fill="#142C73"></path>
</svg>