<svg class="theme-icon" width="20" height="20" viewBox="0 0 20 20" fill="none" xmlns="http://www.w3.org/2000/svg">
<path d="M7 8H9V10H7V8Z" fill="#142C73"></path>
<path d="M13 8H11V10H13V8Z" fill="#142C73"></path>
<path d="M11 14H9V16H11V14Z" fill="#142C73"></path>
<path fill-rule="evenodd" clip-rule="evenodd" d="M15.917 15C15.441 17.8377 12.973 20 10 20C7.027 20 4.55904 17.8377 4.08296 15H0V9C0 4.02944 4.02944 0 9 0H11C15.9706 0 20 4.02944 20 9V15H15.917ZM16 13V7H14V14C14 16.2091 12.2091 18 10 18C7.79086 18 6 16.2091 6 14V7H4L4 13H2V9C2 5.13401 5.13401 2 9 2H11C14.866 2 18 5.13401 18 9V13H16Z" fill="#142C73"></path>
</svg>